<?xml version="1.0" encoding="UTF-8"?>
<svg width="50px" height="50px" viewBox="0 0 50 50" version="1.1" xmlns="http://www.w3.org/2000/svg" xmlns:xlink="http://www.w3.org/1999/xlink">
    <!-- Generator: Sketch 50.2 (55047) - http://www.bohemiancoding.com/sketch -->
    <title>teknorix-logomark50x50</title>
    <desc>Created with Sketch.</desc>
    <defs></defs>
    <g id="teknorix-logomark50x50" stroke="none" stroke-width="1" fill="none" fill-rule="evenodd">
        <g id="Group" transform="translate(0.000000, 3.000000)">
            <g id="Group-32" transform="translate(0.000000, 0.325673)">
                <g id="Group-2">
                    <path d="M25.7110385,31.4575447 C29.6633462,27.5163677 30.9987308,21.9437482 29.7179615,16.8973633 C29.2964231,15.1538987 28.5641154,13.4701022 27.5156538,11.9364385 C28.4171923,11.7705226 29.3448846,11.6808279 30.2945,11.6823677 L35.2510385,11.6916066 L37.1445,16.2872084 C40.3271923,24.0125004 36.6495,32.8572438 28.9306538,36.0427527 L15.3056538,41.6642615 L25.7110385,31.4575447 Z" id="Fill-2" fill="#0AAB6E"></path>
                    <path d="M25.6798846,29.5308796 C25.4068077,29.8577071 25.1191154,30.1756805 24.8118077,30.4824903 L14.5502692,40.7146142 L14.3468077,40.9174858 L14.3995,26.5771142 C14.4129615,19.4542779 19.5398846,13.5394327 26.2964231,12.2967956 C29.8618077,17.5114062 29.6537308,24.5279947 25.6798846,29.5308796" id="Fill-4" fill="#FFAA00"></path>
                    <path d="M21.1923846,6.84801637 L24.8500769,10.522804 C24.9846923,10.6579235 25.1135385,10.7968925 25.2416154,10.9366314 C25.6223846,11.3743261 25.9758462,11.827804 26.2966154,12.297065 C19.5396923,13.5397022 14.4131538,19.4545473 14.3996923,26.5773836 L14.3466154,40.9173704 L8.89892308,27.6625739 C5.83815385,20.2333128 9.37430769,11.7254058 16.7989231,8.66154292 L21.1923846,6.84801637 Z" id="Fill-6" fill="#FFC800"></path>
                    <path d="M21.1923846,6.84801637 L16.7989231,8.66154292 C9.37430769,11.7254058 5.83815385,20.2333128 8.89892308,27.6625739 L14.3466154,40.9173704 L14.3443077,40.920065 L4.23853846,30.767242 C-1.428,25.0745164 -1.41069231,15.8598305 4.27815385,10.1867376 L14.4350769,0.0593216814 L21.1923846,6.84801637 Z" id="Fill-8" fill="#FFE600"></path>
                    <path d="M27.7120769,12.232508 C27.1593846,11.4741451 26.4047692,10.5086761 25.7416923,9.78842389 L22.3763077,6.40735752 L31.4451538,2.45386195 L35.4509231,12.1763044 L30.379,12.1751496 C29.4293846,12.1732248 28.8393846,12.232508 27.7120769,12.232508" id="Fill-10" fill="#22D167"></path>
                    <path d="M29.7313077,37.0055655 C31.7466923,36.2071673 33.5036154,35.0295876 34.9486154,33.5883133 C36.9755385,31.5669106 38.3893846,29.0269726 39.0605385,26.2791584 C39.089,26.1706009 39.1124615,26.0605035 39.1382308,25.9511761 L39.1528462,25.8895832 L39.1543846,25.8799593 C39.8336154,22.9281186 39.7313077,19.7479991 38.6436154,16.7468841 L37.1778462,13.1887381 L36.8247692,12.2967956 L46.4882308,12.2967956 L46.4601538,27.117977 C46.4447692,35.4745965 39.6178462,42.4788664 31.2682308,42.4630832 L16.1824615,42.5204416 L29.7313077,37.0055655 Z" id="Fill-12" fill="#4D96E5"></path>
                </g>
            </g>
        </g>
    </g>
</svg>